<?xml version="1.0" standalone="no"?>
<!DOCTYPE svg PUBLIC "-//W3C//DTD SVG 20010904//EN"
 "http://www.w3.org/TR/2001/REC-SVG-20010904/DTD/svg10.dtd">
<svg version="1.0" xmlns="http://www.w3.org/2000/svg"
 width="1920.000000pt" height="1080.000000pt" viewBox="0 0 1920.000000 1080.000000"
 preserveAspectRatio="xMidYMid meet">

<g transform="translate(0.000000,1080.000000) scale(0.100000,-0.100000)"
fill="#000000" stroke="none">
<path d="M0 5400 l0 -5400 9600 0 9600 0 0 5400 0 5400 -9600 0 -9600 0 0
-5400z m9860 3206 c175 -35 351 -110 495 -211 73 -51 84 -55 135 -55 43 0 62
-5 78 -20 33 -31 28 -50 -13 -50 -40 0 -45 -12 -13 -34 15 -11 45 -16 90 -16
65 0 68 -1 102 -37 93 -102 96 -123 16 -123 -27 0 -50 -4 -50 -10 0 -5 15 -33
34 -62 18 -29 45 -77 60 -105 19 -39 33 -54 54 -59 15 -3 33 -7 40 -10 24 -7
108 -224 98 -251 -3 -7 -11 -13 -19 -13 -26 0 -35 -20 -26 -54 25 -83 47 -216
64 -383 7 -79 16 -147 20 -153 3 -5 19 -10 35 -10 59 0 60 -2 60 -124 0 -129
-6 -144 -65 -148 -39 -3 -40 -4 -43 -45 l-3 -43 70 0 c81 0 107 -16 96 -59 -4
-14 -9 -28 -11 -31 -3 -2 -42 -7 -87 -10 l-81 -5 -7 -35 c-3 -19 -12 -66 -19
-105 -39 -221 -138 -478 -248 -645 -61 -94 -124 -169 -146 -176 -30 -9 -66
-44 -66 -65 0 -22 -55 -74 -147 -141 -61 -43 -66 -49 -45 -54 12 -4 22 -12 22
-20 0 -23 -42 -38 -120 -45 -49 -4 -115 -21 -190 -48 -163 -57 -275 -74 -503
-73 -185 1 -327 12 -437 34 -68 13 -197 54 -229 72 l-24 14 21 6 c12 4 22 11
22 16 0 15 -81 40 -133 40 -48 0 -61 5 -128 51 -41 28 -99 73 -130 100 -50 43
-62 49 -101 49 -35 0 -50 6 -71 28 -33 35 -34 42 -3 42 42 0 39 18 -12 88 -97
131 -202 338 -256 507 -29 91 -65 259 -68 315 -3 48 -1 55 17 58 58 9 65 13
65 36 0 30 -17 44 -60 48 -32 3 -35 6 -42 48 -7 39 -5 47 12 59 18 12 20 24
20 127 0 103 -2 114 -20 124 -25 13 -26 47 -5 225 17 136 37 246 61 333 14 47
18 52 43 52 36 0 43 9 71 90 13 36 31 84 41 108 24 56 24 59 -6 66 -14 4 -25
12 -25 19 0 7 27 59 60 116 33 57 60 108 60 113 0 4 -13 8 -29 8 -55 0 -51 14
31 113 18 22 33 29 68 32 25 1 50 3 55 4 6 0 26 15 45 31 30 25 43 30 89 30
37 0 60 5 73 17 26 23 22 33 -11 33 -17 0 -32 4 -36 9 -8 14 93 83 204 140
152 78 345 130 536 145 116 9 492 -3 565 -18z m-2745 -36 c3 -5 -28 -55 -70
-111 -55 -72 -75 -106 -72 -121 9 -32 -3 -49 -49 -69 -64 -27 -54 -49 21 -49
19 0 37 -5 40 -10 7 -11 -63 -113 -93 -137 -9 -8 -44 -13 -80 -13 -38 0 -68
-5 -75 -12 -7 -7 -46 -57 -86 -112 -67 -88 -73 -100 -58 -111 9 -7 17 -17 17
-24 0 -6 -41 -65 -90 -130 -83 -108 -94 -119 -129 -125 -35 -5 -46 -16 -126
-123 -49 -65 -91 -120 -94 -123 -4 -3 -38 -48 -76 -100 -38 -52 -94 -126 -123
-163 -41 -52 -52 -74 -48 -91 8 -32 -152 -246 -196 -262 -17 -6 -44 -28 -60
-50 l-29 -39 48 -3 c100 -5 118 -25 67 -73 -22 -20 -38 -25 -112 -29 -48 -3
-87 -9 -87 -15 0 -6 159 -11 452 -13 444 -2 452 -2 463 18 7 13 21 20 39 20
39 0 57 23 43 55 -9 20 -19 25 -47 25 l-36 0 3 53 3 52 75 5 75 5 0 120 0 120
-75 5 -75 5 0 100 0 100 100 6 c55 4 225 7 377 8 239 1 279 -1 292 -15 12 -12
16 -36 16 -99 0 -74 2 -86 20 -95 18 -10 20 -21 20 -130 0 -109 -2 -121 -20
-132 -15 -10 -20 -24 -20 -55 l0 -43 73 0 c80 0 97 -9 97 -50 0 -41 -17 -50
-98 -50 -54 0 -73 -3 -70 -12 4 -10 77 -14 304 -18 l299 -5 0 -270 0 -270
-230 -6 c-126 -4 -263 -7 -302 -8 l-73 -1 0 -180 0 -179 68 -3 67 -3 0 -40 0
-40 -67 -3 -68 -3 0 -89 c0 -50 3 -90 8 -91 4 0 23 -2 43 -3 47 -4 59 -12 59
-41 0 -22 -5 -24 -52 -27 -48 -3 -52 -5 -59 -32 -5 -16 -14 -33 -21 -37 -15
-10 -533 -10 -683 0 l-100 6 -3 29 c-4 35 10 46 66 46 34 0 42 3 42 19 0 23
-19 31 -70 31 l-39 0 -3 98 -3 97 -147 3 c-147 3 -148 3 -154 27 -3 13 -3 29
1 34 4 7 58 11 144 11 93 0 141 4 149 12 8 8 12 64 12 184 0 147 -2 173 -16
178 -9 3 -427 6 -929 6 -502 0 -920 3 -929 6 -14 5 -16 35 -16 228 0 198 2
224 18 242 31 35 72 92 72 102 0 14 -64 24 -105 16 -46 -8 -58 16 -25 52 22
22 31 24 116 24 l92 0 41 55 42 55 59 0 60 0 85 113 c47 63 85 119 85 125 0 7
-15 12 -34 12 -19 0 -38 5 -41 11 -4 5 10 31 30 57 20 26 95 124 166 217 221
290 245 320 265 323 10 1 28 5 39 7 18 4 84 80 181 209 16 22 24 41 19 43 -6
2 -17 8 -25 13 -17 11 -22 4 78 134 39 52 72 99 72 105 0 7 -31 11 -84 11 -47
0 -88 4 -91 10 -6 9 64 112 85 125 6 4 53 6 104 6 80 -1 97 2 120 20 51 40 36
49 -83 49 -111 0 -134 7 -111 35 10 12 41 15 141 15 101 0 131 3 143 15 8 9
51 62 96 119 44 58 86 107 93 109 25 10 846 7 852 -3z m6652 -5 c2 -6 -31 -55
-72 -109 -41 -55 -75 -103 -75 -108 0 -4 34 -8 75 -8 84 0 103 -14 69 -51 -16
-17 -28 -19 -103 -17 -81 3 -86 4 -84 25 3 25 -21 37 -48 23 -25 -14 -24 -36
2 -43 17 -5 19 -9 9 -26 -13 -25 -6 -29 54 -33 22 -2 41 -8 43 -14 2 -7 -18
-40 -44 -75 l-48 -64 -71 -3 c-81 -3 -73 3 -179 -137 -66 -87 -67 -90 -46
-103 17 -12 19 -18 9 -36 -14 -27 -160 -219 -173 -228 -5 -4 -26 -10 -46 -13
-34 -6 -49 -23 -210 -237 -257 -341 -262 -348 -247 -353 7 -2 29 -6 48 -7 19
-2 35 -8 35 -15 0 -14 -138 -206 -169 -234 -14 -14 -35 -19 -75 -19 -31 0 -61
-4 -66 -8 -13 -8 -55 -67 -55 -76 0 -3 26 -6 59 -6 73 0 88 -14 61 -58 -22
-36 -37 -41 -140 -44 -42 -2 -75 -7 -75 -13 0 -6 159 -11 452 -13 444 -2 452
-2 463 18 6 11 21 20 35 20 40 0 55 11 55 40 0 30 -15 40 -61 40 -28 0 -29 1
-29 50 0 39 4 52 20 60 18 10 20 21 20 125 0 104 -2 115 -20 125 -18 10 -20
21 -20 104 0 80 3 95 18 101 9 4 181 10 382 12 311 5 367 4 377 -9 7 -8 13
-53 15 -104 l3 -89 45 -3 c25 -2 49 -7 53 -12 11 -10 16 -194 7 -230 -5 -21
-13 -26 -56 -30 l-49 -5 -7 -70 c-3 -38 -2 -87 3 -107 l10 -38 297 -2 297 -3
0 -270 0 -270 -290 -7 c-159 -4 -295 -10 -302 -13 -11 -3 -13 -42 -11 -177 l3
-173 100 -5 100 -5 3 -37 c4 -44 -2 -47 -123 -50 l-80 -3 0 -85 c0 -68 3 -85
15 -87 85 -11 90 -13 90 -43 0 -28 -2 -29 -52 -32 -48 -3 -53 -5 -56 -28 -6
-49 -16 -50 -316 -49 -370 2 -475 8 -490 32 -18 29 4 52 55 55 82 6 76 42 -9
52 l-47 5 0 95 0 95 30 5 c25 4 30 10 30 34 0 25 -5 31 -32 38 l-33 9 0 178
c0 154 -2 180 -16 185 -9 3 -428 6 -932 6 -504 0 -923 4 -930 9 -10 6 -12 55
-10 227 l3 219 48 62 c26 34 53 65 60 70 6 4 44 6 83 4 68 -2 74 -1 106 28 42
39 29 51 -59 51 -35 0 -63 3 -63 6 0 9 54 78 70 89 8 6 42 12 75 15 l59 5 88
113 c49 63 86 118 82 123 -3 5 -23 9 -44 9 -21 0 -41 4 -44 9 -3 5 90 134 207
287 117 154 217 285 221 293 11 18 -10 31 -51 31 -18 0 -33 4 -33 8 0 9 129
182 163 220 17 18 31 22 79 22 35 0 58 -4 58 -11 0 -6 -36 -57 -80 -114 -84
-109 -95 -135 -57 -135 26 0 48 22 123 120 90 118 98 131 84 140 -7 5 -19 6
-26 3 -35 -13 -18 27 48 115 98 130 111 142 157 142 43 0 54 7 105 72 41 52
42 82 4 76 -23 -3 -26 5 -17 42 3 13 -14 15 -108 18 -83 2 -113 6 -113 15 0
31 25 37 151 37 l128 0 82 108 c45 59 91 115 101 124 18 16 54 17 440 15 281
-1 422 -5 425 -12z m344 -1985 c12 -7 19 -21 19 -40 0 -19 -7 -33 -19 -40 -21
-11 -129 -14 -155 -4 -20 7 -22 80 -3 87 23 10 138 7 158 -3z m-3295 -1055 c7
-17 -27 -52 -64 -66 -13 -5 -55 -9 -93 -9 -80 0 -89 13 -42 62 25 26 32 28
110 28 66 0 85 -3 89 -15z m789 -1460 c158 -29 335 -100 335 -135 0 -12 10
-21 30 -25 58 -13 29 -23 -82 -31 -111 -7 -112 -7 -89 -25 20 -17 42 -19 164
-19 l140 0 49 -51 c57 -61 99 -119 148 -209 31 -57 39 -65 68 -68 26 -3 35
-10 47 -39 8 -19 15 -46 15 -58 0 -17 7 -24 31 -29 22 -4 30 -11 27 -23 -2
-13 -16 -19 -48 -23 -44 -5 -45 -5 -42 -40 9 -122 4 -292 -11 -359 -9 -41 -21
-79 -26 -84 -6 -6 -27 -13 -47 -16 -40 -6 -60 -31 -26 -31 34 0 52 -11 52 -31
0 -13 7 -19 24 -19 43 0 48 -21 19 -76 -37 -72 -51 -84 -93 -84 -33 0 -42 -7
-101 -77 -35 -42 -95 -101 -134 -130 -38 -29 -73 -61 -76 -72 -12 -30 -64 -61
-103 -61 -20 0 -62 -9 -94 -20 -112 -40 -186 -52 -357 -57 -281 -9 -555 30
-589 83 -19 28 -76 54 -120 54 -54 0 -202 115 -288 223 -41 52 -41 67 -2 67
32 0 30 15 -9 80 -28 48 -37 55 -67 58 -21 2 -44 13 -58 28 -19 20 -33 24 -77
24 -44 0 -56 4 -65 20 -13 24 -6 28 60 32 53 3 52 1 26 138 -26 140 -15 319
22 348 9 6 42 12 73 12 62 0 87 16 42 26 -15 3 -32 7 -38 8 -5 2 11 6 37 10
59 9 74 26 62 69 -9 30 -12 32 -64 35 -30 2 -59 7 -63 11 -17 17 56 140 145
243 32 36 58 69 58 72 0 3 -8 6 -17 6 -10 0 -24 4 -31 9 -27 17 25 49 86 54
86 8 176 28 162 37 -19 11 -4 28 48 54 97 48 243 86 387 99 113 10 386 6 460
-8z m-5352 -17 c10 -8 17 -31 19 -63 3 -49 4 -50 37 -55 43 -6 52 -27 14 -35
-15 -4 -34 -8 -40 -11 -8 -2 -13 -23 -13 -57 0 -33 -5 -59 -13 -66 -10 -7
-161 -12 -498 -13 l-484 -3 -3 -122 c-3 -123 -3 -123 21 -123 35 0 47 -19 47
-71 0 -26 5 -51 10 -54 6 -3 10 -15 10 -25 0 -15 -9 -19 -42 -22 -31 -2 -44
-8 -46 -20 -3 -17 22 -18 426 -18 237 0 437 -3 446 -6 14 -5 16 -28 16 -145 0
-76 -1 -140 -2 -141 -2 -1 -201 -5 -443 -8 l-440 -5 -5 -69 c-3 -38 -10 -71
-16 -73 -6 -2 -20 -10 -30 -17 -18 -14 -18 -15 8 -27 15 -6 30 -20 33 -31 4
-12 16 -18 34 -18 42 0 52 -20 49 -92 l-3 -63 -35 -5 c-33 -5 -35 -7 -38 -47
l-3 -43 501 0 c326 0 508 -4 521 -10 16 -9 19 -22 19 -90 0 -78 1 -80 24 -80
51 0 63 -62 13 -68 -19 -2 -31 -11 -37 -28 l-10 -24 -774 0 c-675 0 -775 2
-786 15 -17 20 3 45 37 45 20 0 24 4 21 23 -2 16 -11 23 -30 25 -16 2 -28 4
-29 5 -1 1 -3 62 -5 136 -3 74 -7 137 -10 140 -5 5 -49 8 -137 11 -16 0 -18 8
-15 68 l3 67 78 3 c74 3 78 4 75 25 -2 18 -11 23 -48 27 -37 4 -45 9 -45 25 0
16 8 21 40 23 22 2 44 7 49 12 4 4 9 112 11 239 1 127 5 234 8 238 6 5 25 9
70 12 36 2 10 26 -34 31 -36 4 -46 10 -58 34 -11 24 -11 36 0 70 8 27 12 88
10 181 -1 77 2 145 6 151 4 7 19 14 33 15 19 3 26 11 28 32 3 22 -1 27 -18 27
-12 0 -29 4 -39 10 -10 5 -35 11 -55 13 -54 6 -56 17 -3 17 46 0 47 1 48 33 1
35 5 61 13 82 7 19 61 20 842 23 507 2 654 -1 667 -10z m1402 -7 c79 -15 178
-48 240 -79 28 -14 72 -28 99 -32 27 -3 51 -9 53 -15 3 -10 -71 -45 -97 -45
-10 -1 -8 -7 9 -20 15 -13 38 -20 68 -20 39 0 50 -5 78 -36 41 -45 89 -141
110 -219 17 -67 21 -72 55 -77 23 -3 25 -8 28 -58 2 -46 7 -57 25 -65 39 -17
27 -40 -23 -43 -58 -4 -66 -12 -74 -73 -18 -131 -110 -284 -221 -366 -71 -53
-90 -61 -151 -62 -22 -1 -49 -8 -60 -16 -18 -14 -17 -14 13 -15 18 0 43 -10
60 -24 17 -15 45 -26 68 -28 35 -3 44 -9 82 -63 50 -71 54 -95 17 -95 -34 0
-33 -4 70 -148 80 -112 87 -120 125 -126 26 -4 44 -13 51 -26 12 -23 6 -40
-15 -40 -9 0 -14 -9 -12 -22 l2 -23 -263 -3 c-170 -1 -270 1 -282 8 -26 14
-26 40 0 47 24 6 25 11 3 35 -9 10 -30 18 -48 18 -28 0 -38 10 -124 132 -85
120 -92 133 -80 154 11 21 8 29 -30 79 l-42 55 -134 0 -134 0 -3 -67 -3 -68
-35 -3 c-19 -2 -37 -7 -40 -12 -3 -4 -4 -64 -2 -133 l3 -125 30 -6 c26 -5 30
-10 27 -33 -2 -22 -9 -29 -30 -31 -18 -2 -28 -11 -32 -28 l-6 -24 -253 0
c-138 0 -258 4 -265 9 -23 14 -9 45 22 51 42 7 43 27 2 44 l-36 15 0 133 c0
122 -2 134 -20 146 -16 10 -20 23 -20 72 0 49 3 61 20 70 11 6 20 17 20 25 0
13 -21 18 -110 27 -17 2 -25 9 -25 23 0 17 8 21 55 25 30 3 61 9 68 13 9 6 12
65 12 238 l0 230 35 15 c36 15 39 33 7 35 -13 0 -12 3 5 11 27 13 41 71 23 93
-6 7 -24 15 -38 17 l-27 3 -5 160 -5 160 -39 5 c-77 10 -72 64 7 73 23 3 58
10 77 15 l35 10 -31 1 c-19 1 -34 7 -38 17 -11 28 -6 91 7 102 19 16 133 19
632 16 279 -1 473 -6 510 -13z m1867 5 c119 -15 232 -47 318 -91 46 -23 60
-25 194 -25 95 0 147 -4 152 -11 13 -22 -22 -29 -143 -29 -70 0 -124 -4 -128
-10 -3 -5 -16 -10 -28 -10 l-22 -1 24 -19 c15 -13 38 -20 68 -20 35 0 49 -6
70 -27 52 -57 99 -152 124 -255 10 -42 14 -47 42 -50 26 -2 32 -9 40 -37 12
-49 -4 -81 -42 -81 -31 0 -60 -24 -41 -35 17 -11 11 -80 -15 -164 -58 -182
-224 -351 -346 -351 -25 0 -54 -7 -65 -15 -18 -14 -17 -14 13 -15 19 0 43 -10
61 -25 18 -15 42 -25 61 -25 35 0 53 -16 99 -83 39 -56 41 -77 7 -77 -14 0
-25 -4 -25 -9 0 -6 31 -54 69 -108 61 -88 102 -136 154 -178 11 -10 17 -29 17
-55 0 -35 -3 -40 -22 -41 -158 -4 -515 4 -525 13 -7 6 -17 28 -23 49 -6 23
-18 40 -30 44 -26 8 -203 262 -196 280 4 10 20 15 52 15 54 0 54 3 -1 79 l-37
51 -174 0 -174 0 0 -57 c0 -71 -6 -80 -50 -85 l-35 -3 0 -129 0 -130 33 -8
c28 -8 33 -13 30 -36 -2 -19 -10 -28 -28 -32 -14 -3 -29 -16 -35 -28 -10 -22
-11 -22 -260 -22 -137 0 -256 4 -263 9 -23 14 -9 45 22 51 42 7 43 27 2 44
l-36 15 0 128 c0 139 5 153 51 153 31 0 39 15 39 74 0 49 -13 66 -52 66 -21 0
-31 6 -38 25 -8 20 -16 25 -44 25 -60 0 -56 46 4 52 l35 3 3 234 c1 152 6 239
13 248 6 7 28 13 49 13 44 0 56 9 33 25 -14 11 -15 16 -4 28 7 9 11 33 9 54
-3 37 -4 38 -48 43 l-45 5 -5 160 -5 160 -37 3 c-64 5 -81 62 -18 62 17 0 41
5 53 12 12 6 36 15 52 19 l30 7 -31 1 c-19 1 -34 7 -38 17 -11 28 -6 91 7 102
17 15 105 18 572 20 290 1 421 -2 507 -12z m4148 0 c164 -20 340 -82 340 -121
0 -8 10 -15 22 -17 29 -4 34 -24 6 -31 -21 -6 -21 -7 -3 -27 13 -15 30 -20 67
-20 42 0 53 -4 78 -32 50 -54 101 -166 124 -270 5 -21 13 -27 39 -30 32 -3 32
-4 35 -60 2 -38 7 -58 15 -58 19 0 36 -21 30 -36 -3 -9 -21 -14 -48 -14 -52 0
-60 -9 -73 -80 -25 -132 -75 -223 -180 -322 -79 -75 -123 -98 -184 -98 -24 0
-53 -7 -64 -15 -18 -14 -17 -14 13 -15 19 0 43 -10 61 -25 17 -14 43 -25 58
-25 35 0 41 -4 80 -55 60 -78 67 -105 28 -105 -16 0 -24 -5 -22 -13 2 -7 41
-68 88 -135 70 -100 89 -121 110 -122 52 0 95 -58 55 -74 -9 -3 -15 -14 -13
-23 3 -17 -15 -18 -266 -21 -240 -2 -271 -1 -288 14 -23 22 -23 31 2 39 43 14
10 55 -44 55 -21 0 -40 22 -114 128 -48 70 -92 133 -96 140 -5 8 2 14 23 18
17 4 31 11 31 16 0 12 -60 100 -74 110 -6 4 -77 8 -158 8 l-148 0 0 -57 c0
-71 -6 -80 -50 -85 l-35 -3 -3 -132 c-3 -133 -2 -133 20 -133 34 0 50 -14 46
-41 -2 -18 -10 -25 -31 -27 -19 -2 -31 -11 -37 -28 l-10 -24 -257 2 c-257 3
-258 3 -261 25 -3 18 3 24 30 31 45 11 49 39 6 50 l-33 8 0 140 0 139 40 5 40
5 3 53 c4 62 -8 82 -50 82 -22 0 -31 6 -35 20 -5 20 -22 27 -77 32 -55 5 -40
50 18 53 20 1 39 5 42 8 3 3 6 109 7 236 2 194 4 233 17 241 8 5 46 10 83 10
91 0 88 23 -4 31 -36 3 -49 6 -29 7 19 1 40 6 46 10 17 11 27 50 20 78 -6 22
-11 24 -66 24 l-60 0 -2 163 -3 162 -25 3 c-60 6 -70 12 -70 37 0 22 5 25 33
25 17 0 55 9 82 19 48 18 49 19 20 23 -30 3 -30 4 -30 63 l0 60 95 6 c209 12
873 9 990 -5z"/>
<path d="M8723 8197 c-20 -11 -93 -99 -93 -111 0 -3 20 -6 44 -6 41 0 46 4 90
56 25 31 46 60 46 65 0 13 -61 10 -87 -4z"/>
<path d="M9345 8026 c-88 -30 -175 -81 -240 -141 -46 -42 -48 -48 -32 -59 23
-17 22 -28 -8 -72 -14 -20 -44 -75 -66 -121 -39 -79 -44 -83 -79 -89 -28 -5
-40 -12 -43 -28 -3 -11 -15 -53 -26 -93 -29 -106 -52 -245 -58 -358 -5 -93 -4
-101 16 -119 19 -17 21 -29 21 -137 0 -109 -2 -119 -21 -129 -16 -9 -19 -19
-17 -48 l3 -37 76 -5 c82 -5 109 -19 109 -56 0 -32 -14 -38 -95 -44 l-70 -5 3
-35 c8 -101 62 -281 119 -396 118 -241 337 -396 560 -397 89 0 150 19 253 79
54 32 141 109 189 168 38 47 97 154 130 238 32 81 81 265 81 304 0 43 10 54
49 54 42 0 61 14 61 47 0 22 -7 26 -65 35 -17 3 -20 11 -18 48 2 31 8 49 22
60 17 13 20 28 21 100 2 143 2 147 -18 152 -16 5 -20 20 -26 104 -10 153 -44
341 -82 455 -15 48 -30 59 -85 59 -21 0 -30 9 -50 53 -13 28 -41 80 -61 115
-43 71 -46 82 -19 82 42 0 33 24 -30 85 -43 41 -94 75 -154 105 -85 42 -95 45
-185 47 -79 2 -107 -1 -165 -21z"/>
<path d="M10040 7800 c0 -5 12 -26 26 -47 14 -21 42 -73 62 -116 21 -42 45
-80 55 -83 25 -8 127 6 127 18 0 32 -94 198 -128 226 -18 14 -142 17 -142 2z"/>
<path d="M10413 6928 c-5 -7 -11 -59 -12 -115 -2 -93 -1 -103 18 -112 11 -6
22 -8 24 -4 3 5 8 54 12 110 6 77 4 107 -5 118 -15 18 -25 19 -37 3z"/>
<path d="M8247 6563 c-13 -12 -7 -41 9 -47 45 -17 72 0 54 34 -10 19 -49 27
-63 13z"/>
<path d="M10444 6555 c-10 -25 4 -45 29 -45 30 0 50 22 41 44 -8 21 -62 22
-70 1z"/>
<path d="M8480 5517 c0 -8 11 -24 24 -36 23 -21 29 -22 130 -15 58 4 106 10
106 14 0 4 -8 14 -17 22 -25 21 -243 34 -243 15z"/>
<path d="M6267 8313 c-22 -21 13 -37 48 -21 14 6 25 15 25 20 0 10 -64 11 -73
1z"/>
<path d="M6116 8153 c-25 -32 -46 -61 -46 -65 0 -5 27 -8 59 -8 l60 0 45 56
c26 31 44 60 40 65 -3 5 -29 9 -59 9 -53 0 -54 0 -99 -57z"/>
<path d="M4946 6548 c-20 -29 -12 -38 33 -38 26 0 44 7 59 23 12 13 22 26 22
30 0 4 -22 7 -49 7 -40 0 -53 -4 -65 -22z"/>
<path d="M6744 6555 c-11 -26 4 -45 35 -45 30 0 50 28 36 50 -10 16 -65 12
-71 -5z"/>
<path d="M6480 5502 c0 -17 5 -34 10 -37 19 -12 278 7 284 20 10 27 -14 33
-151 40 l-143 8 0 -31z"/>
<path d="M12997 8322 c-17 -3 -30 -29 -19 -36 17 -10 202 0 213 11 7 7 11 15
8 17 -5 5 -180 12 -202 8z"/>
<path d="M12833 8193 c-23 -21 -83 -98 -83 -107 0 -3 21 -6 48 -6 45 0 49 2
90 54 23 30 42 59 42 65 0 18 -76 13 -97 -6z"/>
<path d="M11888 6932 c-17 -7 -178 -209 -178 -224 0 -14 62 -9 74 6 163 208
184 250 104 218z"/>
<path d="M13573 6933 c-9 -3 -13 -37 -13 -118 0 -102 2 -113 19 -118 37 -9 42
5 39 124 -3 117 -8 128 -45 112z"/>
<path d="M13394 6556 c-12 -30 4 -47 38 -44 28 2 33 7 33 28 0 21 -5 26 -33
28 -22 2 -34 -2 -38 -12z"/>
<path d="M13352 5498 c2 -19 9 -23 38 -23 28 0 35 4 35 20 0 16 -8 21 -38 23
-35 3 -38 1 -35 -20z"/>
<path d="M11240 3745 c-133 -37 -223 -89 -308 -179 l-54 -56 26 -10 c14 -5 26
-12 26 -15 0 -3 -11 -28 -25 -54 -21 -42 -22 -50 -9 -55 9 -3 14 -14 12 -23
-2 -14 -16 -19 -58 -23 -54 -5 -55 -6 -69 -45 -22 -60 -20 -253 3 -335 32
-114 32 -109 -3 -116 -43 -9 -34 -28 17 -35 25 -3 51 -14 62 -27 14 -15 33
-22 56 -22 31 0 44 -9 104 -72 48 -52 65 -76 58 -85 -5 -7 -7 -17 -4 -22 9
-15 155 -68 206 -76 70 -10 164 12 261 61 59 29 101 44 127 44 34 0 47 7 95
56 32 30 57 61 57 69 0 8 -12 15 -27 17 -20 2 -28 9 -28 23 0 17 -8 20 -52 23
-34 2 -53 8 -53 16 0 25 25 36 82 36 70 0 79 10 108 125 23 91 26 213 6 297
-16 67 -9 78 47 78 56 0 42 24 -16 28 -45 3 -68 22 -27 22 26 0 25 19 -3 61
-16 25 -31 35 -54 37 -24 2 -42 15 -74 53 -84 100 -225 187 -338 209 -65 12
-92 11 -151 -5z"/>
<path d="M10332 2819 c1 -12 9 -24 16 -27 9 -3 13 3 10 19 -1 12 -9 24 -16 27
-9 3 -13 -3 -10 -19z"/>
<path d="M11980 2826 c-5 -5 -10 -14 -10 -19 0 -12 73 -4 77 9 5 15 -53 24
-67 10z"/>
<path d="M4875 3910 c4 -6 11 -8 16 -5 14 9 11 15 -7 15 -8 0 -12 -5 -9 -10z"/>
<path d="M4857 3483 c-12 -12 -7 -70 7 -82 9 -8 32 -10 65 -5 l51 7 0 37 c0
37 -1 37 -46 44 -59 8 -69 8 -77 -1z"/>
<path d="M4812 2818 c2 -12 10 -23 18 -23 22 0 19 39 -3 43 -15 3 -18 -1 -15
-20z"/>
<path d="M4883 2729 c-14 -14 -16 -49 -7 -98 7 -31 8 -32 58 -29 l51 3 3 63
c3 62 3 62 -25 62 -15 0 -37 3 -48 6 -11 3 -26 -1 -32 -7z"/>
<path d="M7048 3744 c-5 -4 -8 -61 -8 -126 l0 -118 25 0 c31 0 48 -37 40 -84
-5 -26 -2 -33 17 -41 41 -18 28 -39 -27 -45 l-50 -5 -3 -147 -3 -148 167 0
c228 0 300 19 392 103 41 39 92 127 92 162 0 25 27 42 71 43 23 1 44 4 47 6
11 12 -13 26 -46 27 -34 0 -35 1 -14 11 23 11 28 40 16 86 -5 16 -14 22 -35
22 -25 0 -33 8 -58 59 -37 73 -111 141 -188 171 -51 20 -81 23 -243 27 -102 3
-188 2 -192 -3z"/>
<path d="M6700 2832 c-5 -2 -10 -10 -10 -18 0 -10 14 -14 55 -14 40 0 55 4 55
14 0 13 -74 26 -100 18z"/>
<path d="M6640 2720 c-7 -12 -9 -40 -6 -63 3 -23 5 -46 5 -50 1 -4 27 -7 59
-5 l57 3 3 63 c3 60 2 62 -21 62 -14 0 -38 3 -55 6 -24 5 -32 2 -42 -16z"/>
<path d="M7590 2718 c0 -19 64 -107 78 -108 18 0 16 4 -29 65 -44 58 -49 62
-49 43z"/>
<path d="M7970 2285 c0 -17 42 -30 66 -21 13 5 14 9 4 21 -17 20 -70 20 -70 0z"/>
<path d="M8964 3737 c-2 -7 -3 -62 -2 -123 l3 -109 30 -5 c29 -5 30 -7 33 -63
2 -37 7 -57 15 -57 19 0 36 -21 30 -36 -3 -9 -20 -14 -43 -14 -71 0 -70 2 -70
-140 0 -71 3 -135 6 -144 5 -14 29 -16 165 -16 174 0 238 10 317 48 84 41 172
154 172 222 0 25 15 33 67 35 24 2 47 6 50 9 13 13 -16 28 -53 28 l-39 0 28
14 c21 11 27 22 27 47 0 40 -15 57 -50 57 -21 0 -29 8 -45 46 -44 107 -152
185 -283 204 -105 15 -351 13 -358 -3z"/>
<path d="M9822 3443 c2 -31 7 -39 26 -41 20 -3 22 1 22 37 0 37 -2 41 -26 41
-23 0 -25 -3 -22 -37z"/>
<path d="M8677 2833 c-17 -16 -5 -33 23 -33 34 0 39 14 11 30 -23 12 -26 12
-34 3z"/>
<path d="M9693 2294 c-9 -25 8 -34 67 -34 95 0 89 33 -8 42 -39 4 -55 2 -59
-8z"/>
<path d="M8685 2289 c-4 -6 -2 -15 5 -19 17 -10 42 -1 37 14 -5 16 -34 19 -42
5z"/>
<path d="M13122 3737 c-9 -10 -12 -47 -10 -123 l3 -109 30 -5 c29 -5 30 -7 33
-63 2 -37 7 -57 15 -57 19 0 36 -21 30 -36 -3 -9 -21 -14 -48 -14 -24 0 -48
-6 -54 -14 -8 -9 -11 -57 -9 -147 l3 -134 160 -3 c175 -4 240 6 322 45 83 41
154 128 169 211 7 36 26 51 64 47 30 -3 63 12 55 26 -4 5 -25 9 -48 9 -40 0
-41 1 -17 13 47 24 35 103 -17 109 -21 2 -32 15 -54 58 -36 70 -114 141 -187
170 -50 20 -81 23 -242 28 -158 4 -187 2 -198 -11z"/>
<path d="M12677 2825 c-13 -32 3 -38 87 -31 77 7 109 17 88 30 -5 3 -45 8 -89
12 -70 6 -81 5 -86 -11z"/>
<path d="M12800 2280 c0 -11 4 -20 9 -20 11 0 22 26 14 34 -12 12 -23 5 -23
-14z"/>
<path d="M13985 2290 c-7 -11 42 -37 51 -27 9 9 -15 37 -32 37 -7 0 -16 -4
-19 -10z"/>
</g>
</svg>
