<?xml version="1.0" standalone="no"?>
<!DOCTYPE svg PUBLIC "-//W3C//DTD SVG 20010904//EN"
 "http://www.w3.org/TR/2001/REC-SVG-20010904/DTD/svg10.dtd">
<svg version="1.0" xmlns="http://www.w3.org/2000/svg"
 width="512.000000pt" height="512.000000pt" viewBox="0 0 512.000000 512.000000"
 preserveAspectRatio="xMidYMid meet">

<g transform="translate(0.000000,512.000000) scale(0.100000,-0.100000)"
fill="#000000" stroke="none">
<path d="M185 4935 l-25 -24 0 -2351 0 -2351 25 -24 24 -25 2351 0 2351 0 24
25 25 24 0 2351 0 2351 -25 24 -24 25 -2351 0 -2351 0 -24 -25z m4495 -138 c0
-1 -981 -983 -2180 -2182 l-2180 -2180 0 2183 0 2182 2180 0 c1199 0 2180 -1
2180 -3z m120 -2297 l0 -2180 -2182 0 -2183 0 2180 2180 c1199 1199 2181 2180
2182 2180 2 0 3 -981 3 -2180z"/>
<path d="M1545 4455 c-24 -23 -25 -28 -25 -175 0 -147 1 -152 25 -175 15 -16
36 -25 55 -25 19 0 40 9 55 25 24 23 25 28 25 175 0 147 -1 152 -25 175 -15
16 -36 25 -55 25 -19 0 -40 -9 -55 -25z"/>
<path d="M942 4213 c-20 -8 -44 -63 -38 -87 3 -12 52 -67 109 -124 80 -78 110
-102 131 -102 38 0 76 41 76 83 0 29 -13 46 -104 135 -84 84 -108 102 -132
101 -16 0 -35 -3 -42 -6z"/>
<path d="M2175 4201 c-41 -26 -191 -181 -199 -207 -16 -51 39 -111 92 -100 18
4 64 43 125 104 115 116 127 144 79 192 -35 35 -55 37 -97 11z"/>
<path d="M1506 3910 c-63 -16 -153 -70 -197 -117 -22 -24 -55 -74 -72 -111
-29 -61 -32 -76 -32 -163 0 -90 2 -99 37 -171 45 -91 103 -147 196 -191 61
-29 76 -32 162 -32 86 0 101 3 162 32 93 44 151 100 196 191 35 72 37 81 37
172 0 91 -2 100 -37 172 -68 136 -188 217 -336 224 -42 2 -94 -1 -116 -6z
m168 -162 c55 -16 138 -99 154 -154 28 -94 8 -169 -63 -239 -51 -52 -102 -75
-165 -75 -124 0 -240 116 -240 240 0 63 23 114 75 165 70 71 145 90 239 63z"/>
<path d="M665 3575 c-16 -15 -25 -36 -25 -55 0 -19 9 -40 25 -55 23 -24 28
-25 175 -25 147 0 152 1 175 25 16 15 25 36 25 55 0 19 -9 40 -25 55 -23 24
-28 25 -175 25 -147 0 -152 -1 -175 -25z"/>
<path d="M2185 3575 c-16 -15 -25 -36 -25 -55 0 -19 9 -40 25 -55 23 -24 28
-25 175 -25 147 0 152 1 175 25 16 15 25 36 25 55 0 19 -9 40 -25 55 -23 24
-28 25 -175 25 -147 0 -152 -1 -175 -25z"/>
<path d="M1007 3031 c-96 -94 -110 -113 -110 -141 0 -24 8 -40 27 -57 49 -42
69 -33 187 84 96 94 109 111 109 140 0 42 -38 83 -76 83 -21 0 -52 -24 -137
-109z"/>
<path d="M2005 3115 c-17 -16 -25 -35 -25 -58 0 -29 13 -46 104 -135 103 -102
124 -114 171 -96 22 9 48 62 41 88 -3 12 -52 67 -109 124 -115 112 -138 122
-182 77z"/>
<path d="M1545 2935 c-24 -23 -25 -28 -25 -175 0 -147 1 -152 25 -175 15 -16
36 -25 55 -25 19 0 40 9 55 25 24 23 25 28 25 175 0 147 -1 152 -25 175 -15
16 -36 25 -55 25 -19 0 -40 -9 -55 -25z"/>
<path d="M3372 2585 c-329 -113 -563 -378 -638 -720 -19 -85 -21 -278 -5 -360
40 -195 125 -360 260 -498 381 -393 1008 -386 1386 15 41 44 78 91 81 105 8
32 -8 67 -41 89 -23 15 -32 15 -88 3 -97 -22 -276 -17 -371 10 -152 42 -268
113 -379 230 -246 261 -285 649 -95 960 55 91 63 131 31 162 -30 30 -64 30
-141 4z m-123 -282 c-113 -329 -27 -708 220 -965 157 -166 352 -262 588 -291
l97 -13 -53 -33 c-247 -159 -588 -158 -845 3 -433 271 -502 883 -139 1239 64
63 129 115 145 117 4 0 -2 -26 -13 -57z"/>
</g>
</svg>
