<?xml version="1.0" standalone="no"?>
<!DOCTYPE svg PUBLIC "-//W3C//DTD SVG 20010904//EN"
 "http://www.w3.org/TR/2001/REC-SVG-20010904/DTD/svg10.dtd">
<svg version="1.0" xmlns="http://www.w3.org/2000/svg"
 width="1024.000000pt" height="1024.000000pt" viewBox="0 0 1024.000000 1024.000000"
 preserveAspectRatio="xMidYMid meet">

<g transform="translate(0.000000,1024.000000) scale(0.100000,-0.100000)"
fill="#000000" stroke="none">
<path d="M1809 10130 c-102 -17 -193 -92 -229 -186 l-20 -55 0 -4769 0 -4769
20 -55 c26 -69 85 -130 158 -164 l57 -27 3325 0 3325 0 57 27 c73 34 132 95
158 164 19 53 20 74 20 805 0 495 -3 757 -10 770 -14 25 -62 49 -97 49 -31 0
-65 -24 -82 -57 -8 -15 -11 -235 -11 -758 l0 -737 -29 -29 -29 -29 -3302 0
-3302 0 -29 29 -29 29 0 4752 0 4752 29 29 29 29 3302 0 3302 0 29 -29 29 -29
0 -3642 0 -3642 34 -34 c48 -48 105 -44 148 10 17 20 18 228 18 3673 l0 3652
-20 55 c-26 69 -85 130 -158 164 l-57 27 -3295 1 c-1812 1 -3316 -2 -3341 -6z"/>
<path d="M2140 9609 c-14 -5 -33 -20 -42 -32 -16 -21 -18 -95 -18 -1123 l0
-1100 31 -30 30 -29 2979 0 2979 0 30 29 31 30 0 1098 c0 1212 4 1134 -62
1157 -21 8 -348 11 -1045 11 -1121 0 -1060 4 -1088 -63 -26 -64 12 -129 83
-141 20 -3 459 -6 975 -6 l937 0 0 -955 0 -955 -155 0 -155 0 0 689 0 690 -24
28 -24 28 -458 3 c-333 2 -466 -1 -487 -9 -60 -25 -57 9 -57 -741 l0 -688
-140 0 -140 0 -2 691 -3 691 -33 29 -32 29 -456 0 c-494 0 -497 0 -522 -55 -9
-19 -12 -200 -12 -705 l0 -680 -140 0 -140 0 0 680 c0 505 -3 686 -12 705 -25
55 -28 55 -522 55 l-456 0 -32 -29 -33 -29 -3 -691 -2 -691 -140 0 -140 0 0
688 c0 750 3 716 -57 741 -21 8 -154 11 -487 9 l-458 -3 -24 -28 -24 -28 0
-690 0 -689 -155 0 -155 0 0 955 0 955 1473 0 c809 0 1489 3 1509 6 72 12 113
85 83 145 -33 63 79 59 -1627 58 -990 0 -1562 -4 -1578 -10z m1300 -1489 l0
-620 -325 0 -325 0 0 620 0 620 325 0 325 0 0 -620z m1340 0 l0 -620 -325 0
-325 0 0 620 0 620 325 0 325 0 0 -620z m1330 0 l0 -620 -325 0 -325 0 0 620
0 620 325 0 325 0 0 -620z m1340 0 l0 -620 -325 0 -325 0 0 620 0 620 325 0
325 0 0 -620z"/>
<path d="M2972 8195 c-51 -43 -51 -107 -1 -154 20 -19 35 -21 141 -21 115 0
119 1 149 28 37 33 43 84 15 126 -24 38 -54 46 -171 46 -96 0 -106 -2 -133
-25z"/>
<path d="M4304 8186 c-22 -22 -34 -44 -34 -60 0 -35 25 -83 49 -96 11 -5 72
-10 136 -10 115 0 117 0 146 29 21 22 29 39 29 66 0 83 -38 105 -186 105
l-106 0 -34 -34z"/>
<path d="M5658 8204 c-57 -31 -66 -107 -19 -155 29 -29 31 -29 146 -29 64 0
125 5 136 10 24 13 49 61 49 96 0 16 -12 38 -34 60 l-34 34 -108 0 c-77 -1
-117 -5 -136 -16z"/>
<path d="M7003 8210 c-32 -13 -57 -57 -56 -98 1 -27 9 -43 32 -64 30 -27 35
-28 146 -28 112 0 115 1 147 29 27 24 33 36 33 71 0 35 -6 47 -33 71 -32 28
-35 29 -140 28 -59 0 -117 -4 -129 -9z"/>
<path d="M5604 9601 c-86 -52 -50 -181 51 -181 105 0 138 137 45 185 -38 20
-58 19 -96 -4z"/>
<path d="M2155 6963 c-11 -3 -32 -17 -47 -31 l-28 -26 0 -669 0 -669 29 -29
c49 -49 128 -35 160 28 8 15 11 196 11 607 l0 586 2840 0 2840 0 0 -1640 0
-1640 -2840 0 -2840 0 -2 684 -3 684 -24 26 c-45 48 -132 40 -161 -13 -7 -13
-10 -275 -10 -771 l0 -752 29 -29 29 -29 2982 0 2982 0 29 29 29 29 0 1784 0
1784 -31 30 -30 29 -2962 1 c-1629 1 -2971 0 -2982 -3z"/>
<path d="M4939 6550 c-225 -40 -425 -141 -587 -294 -362 -342 -455 -874 -230
-1321 130 -259 372 -470 631 -551 l58 -18 117 -229 c120 -235 136 -257 192
-257 56 0 72 22 192 257 l117 229 58 18 c146 46 332 164 443 282 142 150 242
342 291 559 9 39 14 120 13 230 0 151 -3 181 -27 270 -68 252 -243 500 -457
645 -92 62 -236 127 -347 157 -82 21 -125 26 -258 29 -88 1 -181 -1 -206 -6z"/>
<path d="M2128 5295 c-87 -49 -50 -185 49 -185 64 1 110 54 99 114 -12 66 -91
103 -148 71z"/>
<path d="M2155 2943 c-11 -3 -32 -17 -47 -31 l-28 -26 0 -1098 c0 -1212 -4
-1134 62 -1157 44 -15 5912 -15 5956 0 66 23 62 -55 62 1157 l0 1098 -31 30
-30 29 -2962 1 c-1629 1 -2971 0 -2982 -3z m5805 -1158 l0 -955 -155 0 -155 0
0 686 c0 451 -4 692 -10 705 -26 48 -39 49 -515 49 -465 0 -472 -1 -507 -44
-16 -19 -18 -72 -18 -708 l0 -688 -140 0 -140 0 0 670 c0 736 1 723 -59 755
-27 14 -86 15 -487 13 l-456 -3 -29 -33 -29 -32 0 -685 0 -685 -140 0 -140 0
0 685 0 685 -29 32 -29 33 -456 3 c-395 2 -460 1 -486 -13 -62 -32 -60 -8 -60
-750 l0 -675 -140 0 -140 0 0 680 c0 739 1 723 -55 748 -19 9 -147 12 -471 12
-475 0 -488 -1 -514 -49 -6 -13 -10 -254 -10 -705 l0 -686 -155 0 -155 0 0
955 0 955 2840 0 2840 0 0 -955z m-4520 -335 l0 -620 -325 0 -325 0 0 620 0
620 325 0 325 0 0 -620z m1340 0 l0 -620 -325 0 -325 0 0 620 0 620 325 0 325
0 0 -620z m1330 0 l0 -620 -325 0 -325 0 0 620 0 620 325 0 325 0 0 -620z
m1340 0 l0 -620 -325 0 -325 0 0 620 0 620 325 0 325 0 0 -620z"/>
<path d="M2984 1531 c-63 -38 -66 -129 -6 -169 39 -26 236 -25 274 2 59 39 53
138 -11 170 -46 24 -216 22 -257 -3z"/>
<path d="M4334 1540 c-40 -16 -66 -61 -61 -103 11 -78 61 -101 204 -95 93 4
96 5 124 36 51 57 33 136 -38 163 -30 11 -200 11 -229 -1z"/>
<path d="M5666 1535 c-41 -22 -55 -44 -56 -87 0 -28 8 -46 29 -70 28 -31 31
-32 124 -36 143 -6 193 17 204 96 4 33 1 44 -25 73 l-30 34 -109 3 c-83 2
-115 -1 -137 -13z"/>
<path d="M6994 1531 c-56 -34 -64 -108 -17 -155 30 -30 87 -40 188 -34 88 6
120 24 136 76 14 48 -6 94 -51 117 -45 23 -215 21 -256 -4z"/>
<path d="M8524 2303 c-28 -24 -44 -55 -44 -88 0 -36 59 -95 95 -95 87 0 138
101 82 165 -30 35 -101 45 -133 18z"/>
</g>
</svg>
